<?xml version="1.0" standalone="no"?>
<!DOCTYPE svg PUBLIC "-//W3C//DTD SVG 20010904//EN"
 "http://www.w3.org/TR/2001/REC-SVG-20010904/DTD/svg10.dtd">
<svg version="1.0" xmlns="http://www.w3.org/2000/svg"
 width="512.000000pt" height="512.000000pt" viewBox="0 0 512.000000 512.000000"
 preserveAspectRatio="xMidYMid meet">

<g transform="translate(0.000000,512.000000) scale(0.100000,-0.100000)"
fill="#000000" stroke="none">
<path d="M3528 5110 c-121 -21 -234 -66 -336 -134 -47 -32 -522 -501 -1614
-1593 -1534 -1535 -1547 -1548 -1563 -1604 -14 -49 -15 -145 -13 -815 l3 -759
22 -41 c34 -63 66 -97 125 -129 l53 -30 759 -3 c670 -2 766 -1 815 13 56 16
69 29 1589 1548 844 843 1554 1558 1578 1589 60 77 117 191 145 291 31 108 33
314 5 422 -23 87 -84 220 -132 288 -53 73 -716 738 -794 796 -183 136 -426
197 -642 161z m252 -581 c36 -15 122 -96 388 -362 380 -381 386 -389 385 -507
-1 -127 96 -23 -1512 -1633 l-1466 -1467 -505 2 -505 3 -3 505 -2 505 1442
1443 c794 794 1465 1460 1492 1479 87 65 185 76 286 32z"/>
<path d="M2985 536 c-65 -30 -112 -78 -143 -145 -21 -45 -24 -64 -20 -126 6
-86 34 -143 100 -200 80 -68 45 -66 1044 -63 l899 3 51 27 c104 55 161 157
152 272 -9 103 -72 192 -168 235 -44 20 -62 21 -955 21 l-910 0 -50 -24z"/>
</g>
</svg>
